#!OML:ASF F:\VICON\USERDATA\INSTALL\Justin_Nancy\Justin_Nancy.ASF
:FULLY-SPECIFIED
:DEGREES
1
root 12.0112 17.4264 -26.3839 2.08334 -6.04493 -4.58193
lowerback 5.04366 2.20523 2.93476
upperback -0.520885 3.2166 2.88372
thorax -3.37089 1.57172 1.07748
lowerneck -14.5558 -4.36298 -9.14877
upperneck 22.0699 -5.29337 5.99495
head 9.81048 -2.56367 2.94355
rclavicle -7.40473e-015 -2.06736e-014
rhumerus -25.4095 -7.21796 -81.1488
rradius 35.4211
rwrist 3.59799
rhand -14.6512 12.7528
rfingers 7.12502
rthumb 11.5012 -16.9117
lclavicle -7.40473e-015 -2.06736e-014
lhumerus -34.5309 21.2606 80.2896
lradius 18.8793
lwrist -17.8582
lhand -13.361 30.9224
lfingers 7.12502
lthumb 12.7452 60.5134
rfemur 11.6306 4.07918 29.6879
rtibia 21.8675
rfoot -8.2275 1.92803
rtoes -7.93584
lfemur -28.1605 -2.1131 -16.2558
ltibia 25.8322
lfoot -4.84939 2.90447
ltoes -1.21689
2
root 12.034 17.4335 -26.1737 1.81283 -6.67967 -4.1225
lowerback 4.75389 2.37087 2.54141
upperback -0.498968 3.39364 2.70548
thorax -3.19636 1.66758 1.11225
lowerneck -14.2462 -4.34632 -9.06054
upperneck 22.3865 -5.32066 5.93478
head 9.86204 -2.58329 2.91158
rclavicle 2.16675e-014 -2.0276e-014
rhumerus -25.7222 -7.69009 -81.2253
rradius 34.8822
rwrist 3.85472
rhand -15.0625 12.8839
rfingers 7.12502
rthumb 11.1045 -16.8023
lclavicle 2.16675e-014 -2.0276e-014
lhumerus -34.853 21.6228 79.7844
lradius 18.6715
lwrist -18.423
lhand -13.0941 30.5439
lfingers 7.12502
lthumb 13.0025 60.1187
rfemur 11.1391 4.39766 28.9213
rtibia 24.2702
rfoot -7.31932 2.54542
rtoes -8.38005
lfemur -27.3063 -1.90623 -16.8337
ltibia 25.9233
lfoot -4.6613 1.8578
ltoes -0.753957
3
root 12.0719 17.4449 -25.921 1.08082 -7.96181 -3.45416
lowerback 4.39354 2.7297 2.18294
upperback -0.150382 3.81627 2.45897
thorax -2.64119 1.88779 1.05535
lowerneck -13.9988 -4.36922 -8.75928
upperneck 22.1716 -5.34489 5.54605
head 9.72124 -2.61513 2.72147
rclavicle 1.65488e-014 2.42517e-014
rhumerus -25.8039 -8.48815 -81.1532
rradius 34.0946
rwrist 4.75219
rhand -15.1227 13.2921
rfingers 7.12502
rthumb 11.0464 -16.3972
lclavicle 1.65488e-014 2.42517e-014
lhumerus -34.9639 22.1621 79.352
lradius 18.3924
lwrist -19.0911
lhand -12.4476 30.1838
lfingers 7.12502
lthumb 13.6256 59.7178
rfemur 11.1293 4.99085 27.7071
rtibia 26.7216
rfoot -6.08265 3.5712
rtoes -8.14912
lfemur -25.6309 -1.95618 -17.6118
ltibia 25.9311
lfoot -4.33827 2.66589
ltoes 0.639734
4
root 12.0968 17.4631 -25.6982 0.812369 -8.43606 -2.82911
lowerback 3.75919 2.8639 1.77079
upperback 0.0992768 3.93839 2.19867
thorax -2.0381 1.95747 1.05126
lowerneck -14.186 -4.42376 -8.45918
upperneck 22.1793 -5.42822 5.33746
head 9.75058 -2.64848 2.58407
rclavicle -2.67987e-014 2.78299e-015
rhumerus -25.9453 -9.36812 -81.1152
rradius 33.5087
rwrist 5.54058
rhand -14.7166 12.7298
rfingers 7.12502
rthumb 11.4381 -16.9382
lclavicle -2.67987e-014 2.78299e-015
lhumerus -34.8586 22.6722 78.9885
lradius 18.0429
lwrist -19.6549
lhand -12.114 30.7057
lfingers 7.12502
lthumb 13.9471 60.2179
rfemur 10.4205 5.09923 26.6479
rtibia 29.3339
rfoot -4.50459 4.3592
rtoes -7.26866
lfemur -24.5987 -1.76792 -18.4808
ltibia 26.0937
lfoot -3.7003 3.58773
ltoes 3.02233
5
root 12.1026 17.4774 -25.5429 0.803912 -7.71201 -2.50331
lowerback 3.96322 2.60896 1.29559
upperback -0.15232 3.59032 2.1422
thorax -2.43418 1.78693 1.25912
lowerneck -14.3412 -4.37146 -8.75557
upperneck 22.8163 -5.39754 5.74635
head 10.0248 -2.61513 2.78664
rclavicle 2.49723e-015 -1.23246e-014
rhumerus -26.5118 -10.2739 -80.9422
rradius 33.131
rwrist 6.23427
rhand -14.1663 12.0198
rfingers 7.12502
rthumb 11.9688 -17.618
lclavicle 2.49723e-015 -1.23246e-014
lhumerus -35.2334 23.0951 78.5929
lradius 17.9134
lwrist -20.2933
lhand -11.215 33.3502
lfingers 7.12502
lthumb 14.8134 62.8007
rfemur 9.21599 4.45564 26.1867
rtibia 31.9215
rfoot -2.24273 4.43975
rtoes -5.36708
lfemur -24.3046 -1.27937 -19.2114
ltibia 26.4576
lfoot -3.25947 2.82026
ltoes 3.75903
6
root 12.081 17.4933 -25.4823 1.43937 -4.81053 -2.46536
lowerback 4.88249 1.65514 0.796061
upperback -0.921157 2.3392 2.25174
thorax -3.75124 1.17094 1.68785
lowerneck -14.4483 -4.24317 -8.9113
upperneck 23.3077 -5.23651 5.93066
head 10.2179 -2.53483 2.9055
rclavicle -9.06955e-016 -9.54166e-015
rhumerus -27.1012 -11.0466 -80.7171
rradius 32.8362
rwrist 6.82584
rhand -14.6769 15.7301
rfingers 7.12502
rthumb 11.4763 -13.9358
lclavicle -9.06955e-016 -9.54166e-015
lhumerus -35.5962 23.3643 78.2412
lradius 17.8021
lwrist -20.2818
lhand -10.9389 34.2867
lfingers 7.12502
lthumb 15.0793 63.7174
rfemur 6.77225 2.21151 26.3821
rtibia 34.6491
rfoot 0.72959 3.86712
rtoes -4.26636
lfemur -25.3761 -1.05552 -19.8967
ltibia 26.8157
lfoot -2.85554 -0.436003
ltoes 2.77659
7
root 12.0963 17.5108 -25.3103 1.1827 -4.43151 -2.33886
lowerback 5.03238 1.45118 0.645445
upperback -0.843766 2.05962 2.27348
thorax -3.75462 1.03518 1.81479
lowerneck -14.5591 -4.0927 -8.84241
upperneck 23.3017 -5.02741 5.91612
head 10.2162 -2.43229 2.91633
rclavicle 8.92046e-015 1.86858e-014
rhumerus -27.4374 -11.7015 -80.5381
rradius 32.4887
rwrist 7.56606
rhand -14.2095 12.1966
rfingers 7.12502
rthumb 11.9271 -17.4437
lclavicle 8.92046e-015 1.86858e-014
lhumerus -35.5828 23.8944 77.948
lradius 17.4686
lwrist -20.0717
lhand -12.1592 31.8303
lfingers 7.12502
lthumb 13.9035 61.3455
rfemur 5.60907 1.50594 25.9707
rtibia 37.291
rfoot 3.88231 4.62339
rtoes -4.19689
lfemur -24.685 -0.603767 -20.4079
ltibia 27.2025
lfoot -3.16519 -1.5465
ltoes 4.13588
